<svg xmlns="http://www.w3.org/2000/svg" xmlns:xlink="http://www.w3.org/1999/xlink" width="500" zoomAndPan="magnify" viewBox="0 0 375 374.999991" height="500" preserveAspectRatio="xMidYMid meet" version="1.0"><defs><g/><clipPath id="9c7e140a7e"><path d="M 0 0 L 201.824219 0 L 201.824219 375 L 0 375 Z M 0 0 " clip-rule="nonzero"/></clipPath></defs><rect x="-37.5" width="450" fill="#ffffff" y="-37.499999" height="449.999989" fill-opacity="1"/><rect x="-37.5" width="450" fill="#ffffff" y="-37.499999" height="449.999989" fill-opacity="1"/><rect x="-37.5" width="450" fill="#ffffff" y="-37.499999" height="449.999989" fill-opacity="1"/><path stroke-linecap="butt" transform="matrix(0.75, 0, 0, 0.75, 0.0000045, 0)" fill="none" stroke-linejoin="miter" d="M -0.000006 0 L 499.999995 0 L 499.999995 500.000001 L -0.000006 500.000001 L -0.000006 0 " stroke="#000000" stroke-width="6" stroke-opacity="1" stroke-miterlimit="4"/><g clip-path="url(#9c7e140a7e)"><path fill="#000000" d="M 0 0 L 202.273438 0 L 202.273438 374.984375 L 0 374.984375 Z M 0 0 " fill-opacity="1" fill-rule="nonzero"/></g><g fill="#ffffff" fill-opacity="1"><g transform="translate(-10.658308, 283.836746)"><g><path d="M 31.980469 0 L 59.570312 0 L 59.570312 -78.695312 L 107.851562 -78.695312 L 161.464844 0 L 194.695312 0 L 139.515625 -81.515625 C 171.496094 -89.355469 191.25 -113.496094 191.25 -148.921875 C 191.25 -192.503906 161.148438 -219.464844 115.691406 -219.464844 L 31.980469 -219.464844 Z M 59.570312 -105.03125 L 59.570312 -193.128906 L 112.554688 -193.128906 C 144.535156 -193.128906 163.03125 -176.828125 163.03125 -148.921875 C 163.03125 -121.019531 144.535156 -105.03125 112.554688 -105.03125 Z M 59.570312 -105.03125 "/></g></g></g><g fill="#000000" fill-opacity="1"><g transform="translate(184.887374, 294.014465)"><g><path d="M 23.882812 0 L 182.347656 0 L 182.347656 -53.25 L 88.429688 -53.25 L 88.429688 -88.109375 L 170.082031 -88.109375 L 170.082031 -140.390625 L 88.429688 -140.390625 L 88.429688 -173.3125 L 178.796875 -173.3125 L 178.796875 -225.917969 L 23.882812 -225.917969 Z M 23.882812 0 "/></g></g></g></svg>